<?xml version="1.0" encoding="utf-8"?>
<svg version="1.1" id="group" xmlns="http://www.w3.org/2000/svg" xmlns:xlink="http://www.w3.org/1999/xlink" x="0px" y="0px"
    viewBox="0 0 1024 1024" style="enable-background:new 0 0 1024 1024;" xml:space="preserve">
    <style type="text/css">
        .st0{fill:#F8F9FA;}
    </style>
    <g>
        <path class="st0" d="M560.7,438.2h129.7c5.1,0,8.7-5.1,6.9-9.9L611,195.3c-1.9-7.2-5.9-13.4-11.8-18.7c-5.9-5.1-14.1-7.8-24.6-7.8
            H449.2c-10.4,0-18.7,2.6-24.6,7.8c-5.9,5.3-9.9,11.5-11.8,18.7L179.6,825.8c-0.7,2.6-1,5.6-1,8.8c0,5.3,1.9,10,5.9,14.3
            c4,4.3,8.8,6.3,14.7,6.3h101.9c9.9,0,16.9-2.2,21.6-6.9c4.6-4.6,7.5-8.8,8.8-12.8l38.5-100.3c2.2-5.7,7.6-9.4,13.7-9.4h93.8
            c4.1,0,7.4-3.2,7.4-7.4l-0.4-111.8c0-4.1-3.2-7.4-7.4-7.4h-56.6c-5.1,0-8.7-5-6.9-9.9l91.5-253.2c2.4-6.5,11.5-6.5,13.8,0
            l34.9,97.2C554.8,436.3,557.6,438.2,560.7,438.2z"/>
        <path class="st0" d="M844.4,825.8L722.7,497.1c-1-2.9-3.8-4.9-6.9-4.9H585.2c-5.1,0-8.7,5-6.9,9.9l31.2,87.4
            c1.8,4.9-1.8,9.9-6.9,9.9h-56.2c-4.1,0-7.4,3.2-7.4,7.4v111.8c0,4.1,3.2,7.4,7.4,7.4h93.8c6,0,11.5,3.7,13.7,9.4l38.5,100.3
            c1.3,4,4.3,8.2,8.8,12.8c4.6,4.6,11.8,6.9,21.6,6.9h101.9c5.9,0,10.7-2.1,14.7-6.3c4-4.3,5.9-9,5.9-14.3
            C845.2,831.3,845,828.4,844.4,825.8z"/>
    </g>
</svg>
